# xmcd
#
# Track frame offsets: 
#        150
#        24458
#        49266
#        101479
#        145398
#        170636
#        196758
#        221941
#        240811
#
# Disc length: 3657 seconds
#
# Revision: 1
# Processed by: cddbd v1.5.2PL0 Copyright (c) Steve Scherf et al.
# Submitted via: ExactAudioCopy v0.95b3
#
DISCID=7b0e4709
DTITLE=Jean-Marc Staehle - Au coeur de Soi
DYEAR=2005
DGENRE=New Age
TTITLE0=Douceur de vivre
TTITLE1=Plaisir des sens
TTITLE2=La source intérieure
TTITLE3=Essence Divine
TTITLE4=Féminité
TTITLE5=Soleil levant
TTITLE6=Clair de Lune
TTITLE7=Le Maître de Sagesse
TTITLE8=Les vagues d'Amour
EXTD=YEAR: 2005
EXTT0=
EXTT1=
EXTT2=
EXTT3=
EXTT4=
EXTT5=
EXTT6=
EXTT7=
EXTT8=
PLAYORDER=
